<svg xmlns="http://www.w3.org/2000/svg" width="944" height="800" viewBox="0 0 944 800" xmlns:c2pa="http://c2pa.org/manifest"><metadata><c2pa:manifest>AAAWgmp1bWIAAAAeanVtZGMycGEAEQAQgAAAqgA4m3EDYzJwYQAAABZcanVtYgAAAEdqdW1kYzJtYQARABCAAACqADibcQN1cm46YzJwYTplMThlMDcwZi1hMjQwLTQ5MTktYTI3Ni0zZGIxOTlkMTFmNWMAAAADl2p1bWIAAAApanVtZGMyYXMAEQAQgAAAqgA4m3EDYzJwYS5hc3NlcnRpb25zAAAAALxqdW1iAAAARGp1bWRjYm9yABEAEIAAAKoAOJtxE2MycGEuaW5ncmVkaWVudC52MwAAAAAYYzJzaJ+WwjXLUD/WbUW5kl+lun8AAABwY2JvcqNpZGM6Zm9ybWF0bWltYWdlL3N2Zyt4bWxqaW5zdGFuY2VJRHgseG1wOmlpZDo1NzcxYzVmYi0xYWYzLTRlNjktYmI5ZC0yZjdmZDYzMTExNjZscmVsYXRpb25zaGlwaHBhcmVudE9mAAAB4mp1bWIAAABBanVtZGNib3IAEQAQgAAAqgA4m3ETYzJwYS5hY3Rpb25zLnYyAAAAABhjMnNo9V2Q1cA5YQEzBILrUXBLGAAAAZljYm9yomdhY3Rpb25zgqJmYWN0aW9ua2MycGEub3BlbmVkanBhcmFtZXRlcnOha2luZ3JlZGllbnRzgaJjdXJseC1zZWxmI2p1bWJmPWMycGEuYXNzZXJ0aW9ucy9jMnBhLmluZ3JlZGllbnQudjNkaGFzaFggAyFCbG7Egcf5DfAzCv/094awvWqqpvoX77Fb5mcaxnikZmFjdGlvbngdY29tLmFudGhyb3BpYy5jbGF1ZGUucHJvdmlkZWRqcGFyYW1ldGVyc6F4H2NvbS5hbnRocm9waWMub3JpZ2luLWNvbmZpZGVuY2VndW5rbm93bmtkZXNjcmlwdGlvbnhmQ2xhdWRlIHByb3ZpZGVkIHRoaXMgZmlsZSBhdCB0aGUgcmVxdWVzdCBvZiBhIHVzZXIgYW5kIG1heSBoYXZlIGNyZWF0ZWQgb3IgbW9kaWZpZWQgdGhlIGZpbGUgY29udGVudHMubXNvZnR3YXJlQWdlbnShZG5hbWVmQ2xhdWRlcmFsbEFjdGlvbnNJbmNsdWRlZPUAAADIanVtYgAAAEBqdW1kY2JvcgARABCAAACqADibcRNjMnBhLmhhc2guZGF0YQAAAAAYYzJzaHBlcFX0NG2t0bNjStfJUgcAAACAY2JvcqVjYWxnZnNoYTI1NmNwYWRNAAAAAAAAAAAAAAAAAGRoYXNoWCBKh0XZAuQB6GHB2KFHo/IB3IsmUQMDa7EGN9GhHx2urWRuYW1lbmp1bWJmIG1hbmlmZXN0amV4Y2x1c2lvbnOBomVzdGFydBiWZmxlbmd0aBkeBAAAAj5qdW1iAAAAJ2p1bWRjMmNsABEAEIAAAKoAOJtxA2MycGEuY2xhaW0udjIAAAACD2Nib3KlY2FsZ2ZzaGEyNTZpc2lnbmF0dXJleE1zZWxmI2p1bWJmPS9jMnBhL3VybjpjMnBhOmUxOGUwNzBmLWEyNDAtNDkxOS1hMjc2LTNkYjE5OWQxMWY1Yy9jMnBhLnNpZ25hdHVyZWppbnN0YW5jZUlEeCx4bXA6aWlkOmQ4YWRlYThmLTg5ZDgtNGI5Ny1hOTdkLWZmNGI0OGY5M2U2ZXJjcmVhdGVkX2Fzc2VydGlvbnODomN1cmx4LXNlbGYjanVtYmY9YzJwYS5hc3NlcnRpb25zL2MycGEuaW5ncmVkaWVudC52M2RoYXNoWCADIUJsbsSBx/kN8DMK//T3hrC9aqqm+hfvsVvmZxrGeKJjdXJseCpzZWxmI2p1bWJmPWMycGEuYXNzZXJ0aW9ucy9jMnBhLmFjdGlvbnMudjJkaGFzaFggQvmGYRwbWtGuYVtDtqcmPKILzghmFKqvNL+pq4w3mS2iY3VybHgpc2VsZiNqdW1iZj1jMnBhLmFzc2VydGlvbnMvYzJwYS5oYXNoLmRhdGFkaGFzaFggVZpR9L+/pgUHEr+nlBCbdrDdGP1BBx+Kxc1jOlZRoUV0Y2xhaW1fZ2VuZXJhdG9yX2luZm+jZG5hbWVvQW50aHJvcGljIEZpbGVzZ3ZlcnNpb25lMS4wLjBrc3BlY1ZlcnNpb25lMi40LjAAABA4anVtYgAAAChqdW1kYzJjcwARABCAAACqADibcQNjMnBhLnNpZ25hdHVyZQAAABAIY2JvctKEWQISogEmGCFZAgowggIGMIIBjaADAgECAhRA5aAK7sI50L64g/oGQgU9Z1UTADAKBggqhkjOPQQDAzBJMRcwFQYDVQQKEw5BbnRocm9waWMsIFBCQzEuMCwGA1UEAxMlQW50aHJvcGljIENvbnRlbnQgQ3JlZGVudGlhbHMgUm9vdCBDQTAeFw0yNjA4MDcxODQzNTZaFw0yODA4MDYxOTQzNTZaMEQxFzAVBgNVBAoTDkFudGhyb3BpYywgUEJDMSkwJwYDVQQDEyBBbnRocm9waWMgQ2xhdWRlIENvbnRlbnQgU2lnbmluZzBZMBMGByqGSM49AgEGCCqGSM49AwEHA0IABJh6CmvLUBgFFNU0vUKlOVtE6djd17L5SuwX0LemFisBM3dkd/3cyjxFA3Qo5S46fX0/ihY0VZ7mfb9KF703t5OjWDBWMA4GA1UdDwEB/wQEAwIHgDAVBgNVHSUEDjAMBgorBgEEAYPoXgIBMAwGA1UdEwEB/wQCMAAwHwYDVR0jBBgwFoAUzlHiBIFOZFsj+OPEz5o+nMHXXMIwCgYIKoZIzj0EAwMDZwAwZAIwMXMdFJ4BetLLVY7ORuE9noqbbAZOZn/aArXyTwFAZfKrPzxF2vPoJNf1+UCdg1XGAjBwX1zd9WGqYkqmL5SFqw1QySjr1zJfpJM9+1rdDwSPLMOPOjKuiXjoU/pUUeG9RwmhY3BhZFkNngAAAAAAAAAAAAAAAAAAAAAAAAAAAAAAAAAAAAAAAAAAAAAAAAAAAAAAAAAAAAAAAAAAAAAAAAAAAAAAAAAAAAAAAAAAAAAAAAAAAAAAAAAAAAAAAAAAAAAAAAAAAAAAAAAAAAAAAAAAAAAAAAAAAAAAAAAAAAAAAAAAAAAAAAAAAAAAAAAAAAAAAAAAAAAAAAAAAAAAAAAAAAAAAAAAAAAAAAAAAAAAAAAAAAAAAAAAAAAAAAAAAAAAAAAAAAAAAAAAAAAAAAAAAAAAAAAAAAAAAAAAAAAAAAAAAAAAAAAAAAAAAAAAAAAAAAAAAAAAAAAAAAAAAAAAAAAAAAAAAAAAAAAAAAAAAAAAAAAAAAAAAAAAAAAAAAAAAAAAAAAAAAAAAAAAAAAAAAAAAAAAAAAAAAAAAAAAAAAAAAAAAAAAAAAAAAAAAAAAAAAAAAAAAAAAAAAAAAAAAAAAAAAAAAAAAAAAAAAAAAAAAAAAAAAAAAAAAAAAAAAAAAAAAAAAAAAAAAAAAAAAAAAAAAAAAAAAAAAAAAAAAAAAAAAAAAAAAAAAAAAAAAAAAAAAAAAAAAAAAAAAAAAAAAAAAAAAAAAAAAAAAAAAAAAAAAAAAAAAAAAAAAAAAAAAAAAAAAAAAAAAAAAAAAAAAAAAAAAAAAAAAAAAAAAAAAAAAAAAAAAAAAAAAAAAAAAAAAAAAAAAAAAAAAAAAAAAAAAAAAAAAAAAAAAAAAAAAAAAAAAAAAAAAAAAAAAAAAAAAAAAAAAAAAAAAAAAAAAAAAAAAAAAAAAAAAAAAAAAAAAAAAAAAAAAAAAAAAAAAAAAAAAAAAAAAAAAAAAAAAAAAAAAAAAAAAAAAAAAAAAAAAAAAAAAAAAAAAAAAAAAAAAAAAAAAAAAAAAAAAAAAAAAAAAAAAAAAAAAAAAAAAAAAAAAAAAAAAAAAAAAAAAAAAAAAAAAAAAAAAAAAAAAAAAAAAAAAAAAAAAAAAAAAAAAAAAAAAAAAAAAAAAAAAAAAAAAAAAAAAAAAAAAAAAAAAAAAAAAAAAAAAAAAAAAAAAAAAAAAAAAAAAAAAAAAAAAAAAAAAAAAAAAAAAAAAAAAAAAAAAAAAAAAAAAAAAAAAAAAAAAAAAAAAAAAAAAAAAAAAAAAAAAAAAAAAAAAAAAAAAAAAAAAAAAAAAAAAAAAAAAAAAAAAAAAAAAAAAAAAAAAAAAAAAAAAAAAAAAAAAAAAAAAAAAAAAAAAAAAAAAAAAAAAAAAAAAAAAAAAAAAAAAAAAAAAAAAAAAAAAAAAAAAAAAAAAAAAAAAAAAAAAAAAAAAAAAAAAAAAAAAAAAAAAAAAAAAAAAAAAAAAAAAAAAAAAAAAAAAAAAAAAAAAAAAAAAAAAAAAAAAAAAAAAAAAAAAAAAAAAAAAAAAAAAAAAAAAAAAAAAAAAAAAAAAAAAAAAAAAAAAAAAAAAAAAAAAAAAAAAAAAAAAAAAAAAAAAAAAAAAAAAAAAAAAAAAAAAAAAAAAAAAAAAAAAAAAAAAAAAAAAAAAAAAAAAAAAAAAAAAAAAAAAAAAAAAAAAAAAAAAAAAAAAAAAAAAAAAAAAAAAAAAAAAAAAAAAAAAAAAAAAAAAAAAAAAAAAAAAAAAAAAAAAAAAAAAAAAAAAAAAAAAAAAAAAAAAAAAAAAAAAAAAAAAAAAAAAAAAAAAAAAAAAAAAAAAAAAAAAAAAAAAAAAAAAAAAAAAAAAAAAAAAAAAAAAAAAAAAAAAAAAAAAAAAAAAAAAAAAAAAAAAAAAAAAAAAAAAAAAAAAAAAAAAAAAAAAAAAAAAAAAAAAAAAAAAAAAAAAAAAAAAAAAAAAAAAAAAAAAAAAAAAAAAAAAAAAAAAAAAAAAAAAAAAAAAAAAAAAAAAAAAAAAAAAAAAAAAAAAAAAAAAAAAAAAAAAAAAAAAAAAAAAAAAAAAAAAAAAAAAAAAAAAAAAAAAAAAAAAAAAAAAAAAAAAAAAAAAAAAAAAAAAAAAAAAAAAAAAAAAAAAAAAAAAAAAAAAAAAAAAAAAAAAAAAAAAAAAAAAAAAAAAAAAAAAAAAAAAAAAAAAAAAAAAAAAAAAAAAAAAAAAAAAAAAAAAAAAAAAAAAAAAAAAAAAAAAAAAAAAAAAAAAAAAAAAAAAAAAAAAAAAAAAAAAAAAAAAAAAAAAAAAAAAAAAAAAAAAAAAAAAAAAAAAAAAAAAAAAAAAAAAAAAAAAAAAAAAAAAAAAAAAAAAAAAAAAAAAAAAAAAAAAAAAAAAAAAAAAAAAAAAAAAAAAAAAAAAAAAAAAAAAAAAAAAAAAAAAAAAAAAAAAAAAAAAAAAAAAAAAAAAAAAAAAAAAAAAAAAAAAAAAAAAAAAAAAAAAAAAAAAAAAAAAAAAAAAAAAAAAAAAAAAAAAAAAAAAAAAAAAAAAAAAAAAAAAAAAAAAAAAAAAAAAAAAAAAAAAAAAAAAAAAAAAAAAAAAAAAAAAAAAAAAAAAAAAAAAAAAAAAAAAAAAAAAAAAAAAAAAAAAAAAAAAAAAAAAAAAAAAAAAAAAAAAAAAAAAAAAAAAAAAAAAAAAAAAAAAAAAAAAAAAAAAAAAAAAAAAAAAAAAAAAAAAAAAAAAAAAAAAAAAAAAAAAAAAAAAAAAAAAAAAAAAAAAAAAAAAAAAAAAAAAAAAAAAAAAAAAAAAAAAAAAAAAAAAAAAAAAAAAAAAAAAAAAAAAAAAAAAAAAAAAAAAAAAAAAAAAAAAAAAAAAAAAAAAAAAAAAAAAAAAAAAAAAAAAAAAAAAAAAAAAAAAAAAAAAAAAAAAAAAAAAAAAAAAAAAAAAAAAAAAAAAAAAAAAAAAAAAAAAAAAAAAAAAAAAAAAAAAAAAAAAAAAAAAAAAAAAAAAAAAAAAAAAAAAAAAAAAAAAAAAAAAAAAAAAAAAAAAAAAAAAAAAAAAAAAAAAAAAAAAAAAAAAAAAAAAAAAAAAAAAAAAAAAAAAAAAAAAAAAAAAAAAAAAAAAAAAAAAAAAAAAAAAAAAAAAAAAAAAAAAAAAAAAAAAAAAAAAAAAAAAAAAAAAAAAAAAAAAAAAAAAAAAAAAAAAAAAAAAAAAAAAAAAAAAAAAAAAAAAAAAAAAAAAAAAAAAAAAAAAAAAAAAAAAAAAAAAAAAAAAAAAAAAAAAAAAAAAAAAAAAAAAAAAAAAAAAAAAAAAAAAAAAAAAAAAAAAAAAAAAAAAAAAAAAAAAAAAAAAAAAAAAAAAAAAAAAAAAAAAAAAAAAAAAAAAAAAAAAAAAAAAAAAAAAAAAAAAAAAAAAAAAAAAAAAAAAAAAAAAAAAAAAAAAAAAAAAAAAAAAAAAAAAAAAAAAAAAAAAAAAAAAAAAAAAAAAAAAAAAAAAAAAAAAAAAAAAAAAAAAAAAAAAAAAAAAAAAAAAAAAAAAAAAAAAAAAAAAAAAAAAAAAAAAAAAAAAAAAAAAAAAAAAAAAAAAAAAAAAAAAAAAAAAAAAAAAAAAAAAAAAAAAAAAAAAAAAAAAAAAAAAAAAAAAAAAAAAAAAAAAAAAAAAAAAAAAAAAAAAAAAAAAAAAAAAAAAAAAAAAAAAAAAAAAAAAAAAAAAAAAAAAAAAAAAAAAAAAAAAAAAAAAAAAAAAAAAAAAAAAAAAAAAAAAAAAAAAAAAAAAAAAAAAAAAAAAAAAAAAAAAAAAAAAAAAAAAAAAAAAAAAAAAAAAAAAAAAAAAAAAAAAAAAAAAAAAAAAAAAAAAAAAAAAAAAAAAAAAAAAAAAAAAAAAAAAAAAAAAAAAAAAAAAAAAAAAAAAAAAAAAAAAAAAAAAAAAAAAAAAAAAAAAAAAAAAAAAAAAAAAAAAAAAAAAAAAAAAAAAAAAAAAAAAAAAAAAAAAAAAAAAAAAAAAAAAAAAAAAAAAAAAAAAAAAAAAAAAAAAAAAAAAAAAAAAAAAAAAAAAAAAAAAAAAAAAAAAAAAAAAAAAAAAAAAAAAAAAAAAAAAAAAAAAAAAAAAAAAAAAAAAAAAAAAAAAAAAAAAAAAAAAAAAAAAAAAAAAAAAAAAAAAAAAAAAAAAAAAAAAAAAAAAAAAAAAAAAAAAAAAAAAAAAAAAAAAAAAAAAAAAAAAAAAAAAAAAAAAAAAAAAAAAAAAAAAAAAAAAAAAAAAAAAAAAAAAAAAAAAAAAAAAAAAAAAAAAAAAAAAAAAAAAAAAAAAAAAAAAAAAAAAAAAAAAAAAAAAAAAAAAAAAAAAAAAAAAAAAAAAAAAAAAAAAAAAAAAAAAAAAAAAAAAAAAAAAAAAAAAAAAAAAAAAAAAAAAAAAAAAAAAAAAAAAAAAAAAAAAAAAAAAAAAAAAAAAAAAAAAAAAAAAAAAAAAAAAAAAAAAAAAAAAAAAAAAAAAAAAAAAAAAAAAAAAAAAAAAAAAAAAAAAAAAAAAAAAAAAAAAAAAAAAAAAAAAAAAAAAAAAAAAAAAAAAAAAAAAAAAAAAAAAAAAAAAAAAAAAAAAAAAAAAAAAAAAAAAAAAAAAAAAAAAAAAAAAAAAAAAAAAAAAAAAAAAAAAAAAAAAAAAAAAAAAAAAAAAAAAAAAAAAAAAAAAAAAAAAAAAAAAAAAAAAAAAAAAAAAAAAAAAAAAAAAAAAAAAAAAAAAAAAAAAAAAAAAAAAAAAAAAAAAAAAAAAAAAAAAAAAAAAAAAAAAAAAAAAPZYQHGUgh/7nRWIL0hWf6qigvhK0XXt8bgQwGVriSEufrZwCOKJv2s4YLGDHIXliggYfoGiwAGXQjWPyRBP0KfYaKo=</c2pa:manifest></metadata><rect width="100%" height="100%" fill="#FBF7F1"/><g transform="translate(88.0,88.0) scale(4.0)"><polygon points="0,0 192.0,0 192.0,156.0 0,156.0" fill="#9B1A1A" fill-opacity=".03"/><g fill="none" stroke="#9B1A1A" stroke-width="0.7" vector-effect="non-scaling-stroke"><g transform="translate(96,76) rotate(0.0)"><rect x="-60.0" y="-48.0" width="120.0" height="96.0" rx="1" stroke-dasharray="7 5" opacity=".65"/><line x1="-46.0" y1="-48.0" x2="-60.0" y2="-34.0" opacity=".16"/><line x1="-32.0" y1="-48.0" x2="-60.0" y2="-20.0" opacity=".16"/><line x1="-18.0" y1="-48.0" x2="-60.0" y2="-6.0" opacity=".16"/><line x1="-4.0" y1="-48.0" x2="-60.0" y2="8.0" opacity=".16"/><line x1="10.0" y1="-48.0" x2="-60.0" y2="22.0" opacity=".16"/><line x1="24.0" y1="-48.0" x2="-60.0" y2="36.0" opacity=".16"/><line x1="38.0" y1="-48.0" x2="-58.0" y2="48.0" opacity=".16"/><line x1="52.0" y1="-48.0" x2="-44.0" y2="48.0" opacity=".16"/></g></g><line x1="0.0" y1="0.0" x2="42.0" y2="0.0" stroke="#9B1A1A" stroke-width="3.6" stroke-linecap="butt"/><line x1="126.0" y1="0.0" x2="192.0" y2="0.0" stroke="#9B1A1A" stroke-width="3.6" stroke-linecap="butt"/><line x1="192.0" y1="0.0" x2="192.0" y2="30.0" stroke="#9B1A1A" stroke-width="3.6" stroke-linecap="butt"/><line x1="192.0" y1="90.0" x2="192.0" y2="156.0" stroke="#9B1A1A" stroke-width="3.6" stroke-linecap="butt"/><line x1="192.0" y1="156.0" x2="170.0" y2="156.0" stroke="#9B1A1A" stroke-width="3.6" stroke-linecap="butt"/><line x1="136.0" y1="156.0" x2="0.0" y2="156.0" stroke="#9B1A1A" stroke-width="3.6" stroke-linecap="butt"/><line x1="0.0" y1="156.0" x2="0.0" y2="102.0" stroke="#9B1A1A" stroke-width="3.6" stroke-linecap="butt"/><line x1="0.0" y1="54.0" x2="0.0" y2="0.0" stroke="#9B1A1A" stroke-width="3.6" stroke-linecap="butt"/><rect x="-1.8" y="-1.8" width="3.6" height="3.6" fill="#9B1A1A"/><rect x="190.2" y="-1.8" width="3.6" height="3.6" fill="#9B1A1A"/><rect x="190.2" y="154.2" width="3.6" height="3.6" fill="#9B1A1A"/><rect x="-1.8" y="154.2" width="3.6" height="3.6" fill="#9B1A1A"/><line x1="42.0" y1="-1.8" x2="126.0" y2="-1.8" stroke="#9B1A1A" stroke-width="0.7" opacity=".9"/><line x1="42.0" y1="0.0" x2="126.0" y2="0.0" stroke="#9B1A1A" stroke-width="1.3" opacity=".9"/><line x1="42.0" y1="1.8" x2="126.0" y2="1.8" stroke="#9B1A1A" stroke-width="0.7" opacity=".9"/><line x1="193.8" y1="30.0" x2="193.8" y2="90.0" stroke="#9B1A1A" stroke-width="0.7" opacity=".9"/><line x1="192.0" y1="30.0" x2="192.0" y2="90.0" stroke="#9B1A1A" stroke-width="1.3" opacity=".9"/><line x1="190.2" y1="30.0" x2="190.2" y2="90.0" stroke="#9B1A1A" stroke-width="0.7" opacity=".9"/><line x1="170.0" y1="156.0" x2="170.0" y2="122.0" stroke="#9B1A1A" stroke-width="1.4"/><path d="M 170.0 122.0 A 34.0 34.0 0 0 0 136.0 156.0" fill="none" stroke="#9B1A1A" stroke-width="0.7" stroke-dasharray="4 4" opacity=".5"/><line x1="-1.8" y1="102.0" x2="1.8" y2="102.0" stroke="#9B1A1A" stroke-width="1.0" opacity=".7"/><line x1="-1.8" y1="54.0" x2="1.8" y2="54.0" stroke="#9B1A1A" stroke-width="1.0" opacity=".7"/><g fill="none" stroke="#9B1A1A" stroke-opacity=".62" stroke-width="0.85" stroke-linejoin="round" vector-effect="non-scaling-stroke"><g transform="translate(96,34) rotate(0)"><rect x="-44.0" y="-18.5" width="88.0" height="37.0" rx="3" /><rect x="-42.8" y="-17.3" width="85.6" height="8.0" rx="2" /><rect x="-42.8" y="-17.3" width="5.5" height="34.6" rx="2" /><rect x="37.3" y="-17.3" width="5.5" height="34.6" rx="2" /><rect x="-37.3" y="-8.3" width="23.9" height="24.0" rx="2" /><rect x="-11.9" y="-8.3" width="23.9" height="24.0" rx="2" /><rect x="13.4" y="-8.3" width="23.9" height="24.0" rx="2" /></g><g transform="translate(34,98) rotate(-62)"><rect x="-16.0" y="-17.0" width="32.0" height="34.0" rx="3" /><rect x="-14.8" y="-15.8" width="29.6" height="6.5" rx="2" /><rect x="-14.8" y="-9.0" width="4.5" height="24.5" rx="2" /><rect x="10.3" y="-9.0" width="4.5" height="24.5" rx="2" /><rect x="-9.5" y="-8.0" width="19.0" height="23.0" rx="2" /></g><g transform="translate(158,98) rotate(62)"><rect x="-16.0" y="-17.0" width="32.0" height="34.0" rx="3" /><rect x="-14.8" y="-15.8" width="29.6" height="6.5" rx="2" /><rect x="-14.8" y="-9.0" width="4.5" height="24.5" rx="2" /><rect x="10.3" y="-9.0" width="4.5" height="24.5" rx="2" /><rect x="-9.5" y="-8.0" width="19.0" height="23.0" rx="2" /></g><g transform="translate(96,84) rotate(0)"><rect x="-24.0" y="-13.0" width="48.0" height="26.0" rx="2" /><rect x="-21.0" y="-10.0" width="42.0" height="20.0" rx="1" opacity=".45"/></g><g transform="translate(96,138) rotate(0)"><rect x="-36.0" y="-9.0" width="72.0" height="18.0" rx="1" /><line x1="-12.0" y1="-9.0" x2="-12.0" y2="9.0" opacity=".45"/><line x1="12.0" y1="-9.0" x2="12.0" y2="9.0" opacity=".45"/></g><g transform="translate(42,40) rotate(0.0)"><circle cx="0" cy="0" r="10.0"/><circle cx="0" cy="0" r="5.5" opacity=".45"/></g><g transform="translate(150,40) rotate(0.0)"><circle cx="0" cy="0" r="10.0"/><circle cx="0" cy="0" r="5.5" opacity=".45"/></g><g transform="translate(20,136) rotate(0.0)"><circle cx="0" cy="0" r="8.0" opacity=".55"/><circle cx="0" cy="0" r="2.4"/></g><g transform="translate(174,20) rotate(0.0)"><circle cx="0" cy="0" r="12.0" opacity=".5"/><circle cx="6.2" cy="0.0" r="4.3" opacity=".45"/><circle cx="3.9" cy="4.9" r="4.3" opacity=".45"/><circle cx="-1.4" cy="6.1" r="4.3" opacity=".45"/><circle cx="-5.6" cy="2.7" r="4.3" opacity=".45"/><circle cx="-5.6" cy="-2.7" r="4.3" opacity=".45"/><circle cx="-1.4" cy="-6.1" r="4.3" opacity=".45"/><circle cx="3.9" cy="-4.9" r="4.3" opacity=".45"/></g><g transform="translate(176,78) rotate(0.0)"><rect x="-7.0" y="-26.0" width="14.0" height="52.0" rx="1" /><line x1="-7.0" y1="0" x2="7.0" y2="0" opacity=".45"/></g></g></g><g font-family="Jost, Helvetica, sans-serif" fill="#9B1A1A"><text x="472.0" y="227.0" text-anchor="middle" font-size="8.5" letter-spacing="1.6" opacity=".75">SOFA</text><text x="472.0" y="427.0" text-anchor="middle" font-size="8.5" letter-spacing="1.6" opacity=".75">COFFEE</text><text x="472.0" y="643.0" text-anchor="middle" font-size="8.5" letter-spacing="1.6" opacity=".75">MEDIA</text><text x="472.0" y="54.0" text-anchor="middle" font-size="17" letter-spacing="6">LIVING</text><text x="472.0" y="70.0" text-anchor="middle" font-size="9.5" letter-spacing="2.4" opacity=".6">16'-0" &#215; 13'-0" &#183; 208 SQ FT</text><g stroke="#9B1A1A" stroke-width="1" opacity=".45" fill="none"><line x1="88.0" y1="752.0" x2="856.0" y2="752.0"/><line x1="88.0" y1="747.0" x2="88.0" y2="757.0"/><line x1="856.0" y1="747.0" x2="856.0" y2="757.0"/><line x1="48.0" y1="88.0" x2="48.0" y2="712.0"/><line x1="43.0" y1="88.0" x2="53.0" y2="88.0"/><line x1="43.0" y1="712.0" x2="53.0" y2="712.0"/></g><text x="472.0" y="745.0" text-anchor="middle" font-size="10.5" letter-spacing="1.6" opacity=".8">16'-0"</text><text x="41.0" y="400.0" text-anchor="middle" font-size="10.5" letter-spacing="1.6" opacity=".8" transform="rotate(-90 41.0 400.0)">13'-0"</text><text x="88.0" y="778.0" font-size="8" letter-spacing="2.2" opacity=".5">SCALE 1/4&#8243; = 1&#8242;-0&#8243;</text></g></svg>